<svg xmlns="http://www.w3.org/2000/svg" xmlns:xlink="http://www.w3.org/1999/xlink" width="125" height="120.405" viewBox="0 0 125 120.405">
  <defs>
    <linearGradient id="linear-gradient" x1="0.621" y1="0.605" x2="-0.292" y2="-0.322" gradientUnits="objectBoundingBox">
      <stop offset="0.008" stop-color="#1cee89"/>
      <stop offset="0.458" stop-color="#17d08e"/>
      <stop offset="1" stop-color="#11ad94"/>
    </linearGradient>
    <linearGradient id="linear-gradient-2" x1="0.657" y1="0.658" x2="0.056" y2="-0.363" xlink:href="#linear-gradient"/>
  </defs>
  <g id="logo" transform="translate(-393 -18.457)">
    <g id="comera-logo" transform="translate(433 18.457)">
      <path id="Path_1" data-name="Path 1" d="M3700.891,872.316a23.348,23.348,0,0,1-23.364-23.364h-14.935a4.563,4.563,0,0,0-4.538,5.084,43.152,43.152,0,0,0,37.752,37.752,4.564,4.564,0,0,0,5.084-4.538Z" transform="translate(-3657.708 -805.82)" fill="url(#linear-gradient)"/>
      <path id="Path_2" data-name="Path 2" d="M3695.9,754.452h-34a4.564,4.564,0,0,0-4.564,4.564v37.727c0,.473.022.944.063,1.413a42.935,42.935,0,0,0,9.085,25.924,40.461,40.461,0,0,1,8.155-23.323c1.049-1.212,3.135-3.173,5.658-3.173h20.172V759.016A4.565,4.565,0,0,0,3695.9,754.452Z" transform="translate(-3657.333 -754.452)" fill="url(#linear-gradient-2)"/>
      <path id="Path_3" data-name="Path 3" d="M3686.272,801.372a11.82,11.82,0,0,1,16.715,0" transform="translate(-3673.063 -778.075)" fill="none" stroke="#fff" stroke-miterlimit="10" stroke-width="4"/>
    </g>
    <g id="comera-text" transform="translate(393 116)">
      <g id="Group_2" data-name="Group 2" transform="translate(0 0.113)">
        <path id="Path_4" data-name="Path 4" d="M773.444,807.541a4.087,4.087,0,0,0,2.846-1.053,3.447,3.447,0,0,0,1.165-2.674h4.457l.04.121a6.61,6.61,0,0,1-2.441,5.308,9.771,9.771,0,0,1-13.38-.9,12.017,12.017,0,0,1-2.572-7.89v-.709a12.028,12.028,0,0,1,2.572-7.88,8.9,8.9,0,0,1,7.293-3.14,8.6,8.6,0,0,1,6.219,2.3,7.511,7.511,0,0,1,2.309,5.845l-.04.121h-4.457a4.449,4.449,0,0,0-1.114-3.059,3.713,3.713,0,0,0-2.917-1.256,4.016,4.016,0,0,0-3.788,2.036,10.076,10.076,0,0,0-1.155,5.034v.709a10.174,10.174,0,0,0,1.145,5.075A4.038,4.038,0,0,0,773.444,807.541Z" transform="translate(-763.559 -788.722)" fill="#2d2d2d"/>
      </g>
      <g id="Group_3" data-name="Group 3" transform="translate(19.621)">
        <path id="Path_5" data-name="Path 5" d="M794.656,799.7a11.9,11.9,0,0,1,2.684-8.032,10.249,10.249,0,0,1,14.747,0,11.9,11.9,0,0,1,2.684,8.032v.425a11.88,11.88,0,0,1-2.684,8.052,10.286,10.286,0,0,1-14.747-.01,11.889,11.889,0,0,1-2.684-8.042Zm4.922.425a9.718,9.718,0,0,0,1.256,5.227,4.738,4.738,0,0,0,7.748-.011,9.544,9.544,0,0,0,1.286-5.216V799.7a9.528,9.528,0,0,0-1.286-5.176,4.3,4.3,0,0,0-3.9-2.036,4.215,4.215,0,0,0-3.839,2.036,9.657,9.657,0,0,0-1.266,5.176Z" transform="translate(-794.656 -788.543)" fill="#2d2d2d"/>
        <path id="Path_6" data-name="Path 6" d="M833.894,788.948l.264,2.856a7.422,7.422,0,0,1,2.694-2.41,7.944,7.944,0,0,1,3.747-.851,6.764,6.764,0,0,1,3.687.972,5.886,5.886,0,0,1,2.309,2.917,7.681,7.681,0,0,1,2.674-2.856,7.208,7.208,0,0,1,3.889-1.034,6.428,6.428,0,0,1,5.216,2.3q1.915,2.3,1.914,6.958v13.066h-4.922V797.78a6.462,6.462,0,0,0-.962-4.041,3.529,3.529,0,0,0-2.887-1.165,4.223,4.223,0,0,0-2.674.851,4.736,4.736,0,0,0-1.58,2.289q0,.3.02.526t.02.425v14.2h-4.923V797.78a6.38,6.38,0,0,0-.982-3.99,3.492,3.492,0,0,0-2.887-1.216,5.183,5.183,0,0,0-2.542.577,4.257,4.257,0,0,0-1.651,1.631v16.084H829.4V788.948Z" transform="translate(-807.477 -788.543)" fill="#2d2d2d"/>
        <path id="Path_7" data-name="Path 7" d="M891.4,811.292a9.542,9.542,0,0,1-7.505-3.028,11.34,11.34,0,0,1-2.7-7.85v-.81a11.725,11.725,0,0,1,2.7-7.951,8.74,8.74,0,0,1,6.979-3.109q4.416,0,6.685,2.724a11.022,11.022,0,0,1,2.268,7.283V801.2H886.27l-.04.1a7.18,7.18,0,0,0,1.418,4.375,4.838,4.838,0,0,0,4.031,1.682,11.084,11.084,0,0,0,3.474-.487,9.9,9.9,0,0,0,2.724-1.4l1.6,3.221a10.427,10.427,0,0,1-3.323,1.843A13.921,13.921,0,0,1,891.4,811.292Zm-.527-18.8a3.8,3.8,0,0,0-3.079,1.388,6.885,6.885,0,0,0-1.439,3.616l.041.1h8.569v-.385a5.528,5.528,0,0,0-.982-3.413A3.638,3.638,0,0,0,890.869,792.493Z" transform="translate(-826.588 -788.543)" fill="#2d2d2d"/>
        <path id="Path_8" data-name="Path 8" d="M945.511,810.867q-.263-.83-.435-1.62a11.665,11.665,0,0,1-.233-1.58,8.446,8.446,0,0,1-2.653,2.583,6.828,6.828,0,0,1-3.708,1.043,7.288,7.288,0,0,1-5.257-1.762,6.4,6.4,0,0,1-1.833-4.841,5.721,5.721,0,0,1,2.512-4.953,12.131,12.131,0,0,1,7.069-1.772H944.8v-1.924a3.581,3.581,0,0,0-1-2.694,4.014,4.014,0,0,0-2.907-.972,4.139,4.139,0,0,0-2.674.8,2.546,2.546,0,0,0-.992,2.077l-4.74.02-.02-.121a5.431,5.431,0,0,1,2.319-4.6,9.829,9.829,0,0,1,6.411-2.006,9.379,9.379,0,0,1,6.178,1.945,6.843,6.843,0,0,1,2.35,5.591v9.744a17.932,17.932,0,0,0,.182,2.6,13.714,13.714,0,0,0,.587,2.441Zm-6.016-3.525a6.151,6.151,0,0,0,3.332-.932,4.691,4.691,0,0,0,1.975-2.127v-3.241h-3.91a4.937,4.937,0,0,0-3.363,1.064,3.23,3.23,0,0,0-1.215,2.5,2.554,2.554,0,0,0,.82,2A3.409,3.409,0,0,0,939.495,807.342Z" transform="translate(-845.116 -788.543)" fill="#2d2d2d"/>
        <path id="Path_9" data-name="Path 9" d="M945.511,810.867q-.263-.83-.435-1.62a11.665,11.665,0,0,1-.233-1.58,8.446,8.446,0,0,1-2.653,2.583,6.828,6.828,0,0,1-3.708,1.043,7.288,7.288,0,0,1-5.257-1.762,6.4,6.4,0,0,1-1.833-4.841,5.721,5.721,0,0,1,2.512-4.953,12.131,12.131,0,0,1,7.069-1.772H944.8v-1.924a3.581,3.581,0,0,0-1-2.694,4.014,4.014,0,0,0-2.907-.972,4.139,4.139,0,0,0-2.674.8,2.546,2.546,0,0,0-.992,2.077l-4.74.02-.02-.121a5.431,5.431,0,0,1,2.319-4.6,9.829,9.829,0,0,1,6.411-2.006,9.379,9.379,0,0,1,6.178,1.945,6.843,6.843,0,0,1,2.35,5.591v9.744a17.932,17.932,0,0,0,.182,2.6,13.714,13.714,0,0,0,.587,2.441Zm-6.016-3.525a6.151,6.151,0,0,0,3.332-.932,4.691,4.691,0,0,0,1.975-2.127v-3.241h-3.91a4.937,4.937,0,0,0-3.363,1.064,3.23,3.23,0,0,0-1.215,2.5,2.554,2.554,0,0,0,.82,2A3.409,3.409,0,0,0,939.495,807.342Z" transform="translate(-845.116 -788.543)" fill="#2d2d2d"/>
        <path id="Path_10" data-name="Path 10" d="M920.213,793.858l0-.016c.124-.068.255-.122.383-.182l.037-.017a5.958,5.958,0,0,1,4-.377l.477-3.732.1-.747a6.067,6.067,0,0,0-.709-.172,4.582,4.582,0,0,0-.83-.071,4.977,4.977,0,0,0-3.008.952,7.045,7.045,0,0,0-2.138,2.634l-.324-3.181h-4.5v21.919h4.923V795.633a4.008,4.008,0,0,1,1.489-1.722C920.142,793.891,920.18,793.877,920.213,793.858Z" transform="translate(-838.586 -788.543)" fill="#2d2d2d"/>
        <path id="Path_11" data-name="Path 11" d="M922.922,793.312a15.609,15.609,0,0,1,2.32-.1,5.961,5.961,0,0,1,2.814.165,5.549,5.549,0,0,1,2.087-3.649,5.467,5.467,0,0,0-2.813-1.085S919.834,793.694,922.922,793.312Z" transform="translate(-841.715 -788.581)" fill="#2d2d2d"/>
      </g>
    </g>
  </g>
</svg>
