<svg id="logo_footer" xmlns="http://www.w3.org/2000/svg" xmlns:xlink="http://www.w3.org/1999/xlink" width="147.416" height="66.521" viewBox="0 0 147.416 66.521">
  <defs>
    <linearGradient id="linear-gradient" x1="0.621" y1="0.605" x2="-0.292" y2="-0.322" gradientUnits="objectBoundingBox">
      <stop offset="0.008" stop-color="#1cee89"/>
      <stop offset="0.458" stop-color="#17d08e"/>
      <stop offset="1" stop-color="#11ad94"/>
    </linearGradient>
    <linearGradient id="linear-gradient-2" x1="0.657" y1="0.658" x2="0.056" y2="-0.363" xlink:href="#linear-gradient"/>
  </defs>
  <g id="Group_72" data-name="Group 72" transform="translate(-3657.333 -754.452)">
    <path id="Path_1" data-name="Path 1" d="M3691.182,867.024a18.059,18.059,0,0,1-18.072-18.072h-11.552a3.53,3.53,0,0,0-3.51,3.932,33.378,33.378,0,0,0,29.2,29.2,3.53,3.53,0,0,0,3.932-3.51Z" transform="translate(-0.447 -61.137)" fill="url(#linear-gradient)"/>
    <path id="Path_2" data-name="Path 2" d="M3687.166,754.452h-26.3a3.53,3.53,0,0,0-3.531,3.531v29.182c0,.366.017.73.048,1.093a33.211,33.211,0,0,0,7.027,20.052,31.3,31.3,0,0,1,6.308-18.04c.811-.938,2.425-2.454,4.376-2.454h15.6V757.983A3.531,3.531,0,0,0,3687.166,754.452Z" transform="translate(0)" fill="url(#linear-gradient-2)"/>
    <path id="Path_3" data-name="Path 3" d="M3686.272,800.588a9.143,9.143,0,0,1,12.929,0" transform="translate(-18.722 -28.115)" fill="none" stroke="#fff" stroke-miterlimit="10" stroke-width="2"/>
  </g>
  <g id="Group_73" data-name="Group 73" transform="translate(-714.559 -764.543)">
    <g id="Group_2" data-name="Group 2" transform="translate(763.559 788.632)">
      <path id="Path_4" data-name="Path 4" d="M771.342,803.539a3.218,3.218,0,0,0,2.241-.829,2.714,2.714,0,0,0,.917-2.105h3.509l.032.1a5.2,5.2,0,0,1-1.922,4.179,7.693,7.693,0,0,1-10.535-.71,9.461,9.461,0,0,1-2.025-6.212V797.4a9.47,9.47,0,0,1,2.025-6.2,7,7,0,0,1,5.742-2.473,6.771,6.771,0,0,1,4.9,1.81,5.914,5.914,0,0,1,1.818,4.6l-.032.1H774.5a3.5,3.5,0,0,0-.877-2.408,2.923,2.923,0,0,0-2.3-.989,3.162,3.162,0,0,0-2.983,1.6,7.933,7.933,0,0,0-.909,3.964v.558a8.011,8.011,0,0,0,.9,4A3.179,3.179,0,0,0,771.342,803.539Z" transform="translate(-763.559 -788.722)" fill="#2d2d2d"/>
    </g>
    <g id="Group_3" data-name="Group 3" transform="translate(779.007 788.543)">
      <path id="Path_5" data-name="Path 5" d="M794.656,797.331a9.367,9.367,0,0,1,2.113-6.323,8.07,8.07,0,0,1,11.611,0,9.367,9.367,0,0,1,2.113,6.323v.335a9.354,9.354,0,0,1-2.113,6.34A8.1,8.1,0,0,1,796.769,804a9.36,9.36,0,0,1-2.113-6.332Zm3.875.335a7.651,7.651,0,0,0,.989,4.115,3.73,3.73,0,0,0,6.1-.008,7.514,7.514,0,0,0,1.013-4.107v-.335a7.5,7.5,0,0,0-1.013-4.075,3.385,3.385,0,0,0-3.07-1.6,3.319,3.319,0,0,0-3.022,1.6,7.6,7.6,0,0,0-1,4.075Z" transform="translate(-794.656 -788.543)" fill="#2d2d2d"/>
      <path id="Path_6" data-name="Path 6" d="M832.938,788.862l.208,2.249a5.843,5.843,0,0,1,2.121-1.9,6.254,6.254,0,0,1,2.95-.67,5.325,5.325,0,0,1,2.9.766,4.634,4.634,0,0,1,1.818,2.3,6.048,6.048,0,0,1,2.105-2.248,5.675,5.675,0,0,1,3.062-.814,5.061,5.061,0,0,1,4.107,1.81q1.508,1.811,1.507,5.479v10.287h-3.875v-10.3a5.087,5.087,0,0,0-.758-3.182,2.778,2.778,0,0,0-2.273-.917,3.325,3.325,0,0,0-2.105.67,3.728,3.728,0,0,0-1.244,1.8q0,.239.016.414t.016.335v11.181H839.62v-10.3a5.023,5.023,0,0,0-.773-3.142,2.749,2.749,0,0,0-2.273-.957,4.081,4.081,0,0,0-2,.455,3.352,3.352,0,0,0-1.3,1.284v12.663H829.4V788.862Z" transform="translate(-812.138 -788.543)" fill="#2d2d2d"/>
      <path id="Path_7" data-name="Path 7" d="M889.224,806.454a7.513,7.513,0,0,1-5.909-2.384,8.928,8.928,0,0,1-2.129-6.18v-.638a9.232,9.232,0,0,1,2.129-6.26,6.881,6.881,0,0,1,5.494-2.448,6.459,6.459,0,0,1,5.263,2.145,8.678,8.678,0,0,1,1.786,5.734v2.089h-10.67l-.032.08a5.653,5.653,0,0,0,1.116,3.445,3.809,3.809,0,0,0,3.174,1.324,8.727,8.727,0,0,0,2.735-.383,7.8,7.8,0,0,0,2.145-1.1l1.26,2.536a8.21,8.21,0,0,1-2.616,1.451A10.96,10.96,0,0,1,889.224,806.454Zm-.415-14.8a2.994,2.994,0,0,0-2.424,1.092,5.421,5.421,0,0,0-1.133,2.847l.032.08h6.746v-.3a4.352,4.352,0,0,0-.773-2.687A2.864,2.864,0,0,0,888.81,791.653Z" transform="translate(-838.2 -788.543)" fill="#2d2d2d"/>
      <path id="Path_8" data-name="Path 8" d="M942.509,806.119q-.207-.654-.343-1.276a9.19,9.19,0,0,1-.184-1.244,6.649,6.649,0,0,1-2.089,2.033,5.376,5.376,0,0,1-2.919.821,5.738,5.738,0,0,1-4.139-1.388,5.038,5.038,0,0,1-1.443-3.812,4.5,4.5,0,0,1,1.978-3.9,9.551,9.551,0,0,1,5.566-1.4h3.015v-1.515a2.819,2.819,0,0,0-.789-2.121,3.16,3.16,0,0,0-2.289-.766,3.259,3.259,0,0,0-2.105.63,2,2,0,0,0-.781,1.635l-3.732.016-.016-.1a4.276,4.276,0,0,1,1.826-3.621,7.739,7.739,0,0,1,5.048-1.579,7.384,7.384,0,0,1,4.865,1.531,5.388,5.388,0,0,1,1.851,4.4v7.672a14.107,14.107,0,0,0,.144,2.049,10.807,10.807,0,0,0,.462,1.922Zm-4.737-2.775a4.843,4.843,0,0,0,2.623-.734,3.694,3.694,0,0,0,1.555-1.675v-2.552h-3.078a3.887,3.887,0,0,0-2.648.838,2.543,2.543,0,0,0-.957,1.97,2.011,2.011,0,0,0,.646,1.571A2.683,2.683,0,0,0,937.772,803.344Z" transform="translate(-863.464 -788.543)" fill="#2d2d2d"/>
      <path id="Path_9" data-name="Path 9" d="M942.509,806.119q-.207-.654-.343-1.276a9.19,9.19,0,0,1-.184-1.244,6.649,6.649,0,0,1-2.089,2.033,5.376,5.376,0,0,1-2.919.821,5.738,5.738,0,0,1-4.139-1.388,5.038,5.038,0,0,1-1.443-3.812,4.5,4.5,0,0,1,1.978-3.9,9.551,9.551,0,0,1,5.566-1.4h3.015v-1.515a2.819,2.819,0,0,0-.789-2.121,3.16,3.16,0,0,0-2.289-.766,3.259,3.259,0,0,0-2.105.63,2,2,0,0,0-.781,1.635l-3.732.016-.016-.1a4.276,4.276,0,0,1,1.826-3.621,7.739,7.739,0,0,1,5.048-1.579,7.384,7.384,0,0,1,4.865,1.531,5.388,5.388,0,0,1,1.851,4.4v7.672a14.107,14.107,0,0,0,.144,2.049,10.807,10.807,0,0,0,.462,1.922Zm-4.737-2.775a4.843,4.843,0,0,0,2.623-.734,3.694,3.694,0,0,0,1.555-1.675v-2.552h-3.078a3.887,3.887,0,0,0-2.648.838,2.543,2.543,0,0,0-.957,1.97,2.011,2.011,0,0,0,.646,1.571A2.683,2.683,0,0,0,937.772,803.344Z" transform="translate(-863.464 -788.543)" fill="#2d2d2d"/>
      <path id="Path_10" data-name="Path 10" d="M918.827,792.727l0-.012c.1-.054.2-.1.3-.143l.029-.013a4.691,4.691,0,0,1,3.152-.3l.376-2.938.075-.588a4.775,4.775,0,0,0-.558-.136,3.609,3.609,0,0,0-.654-.056,3.918,3.918,0,0,0-2.368.75,5.546,5.546,0,0,0-1.683,2.074l-.255-2.5H913.7v17.257h3.876V794.125a3.157,3.157,0,0,1,1.172-1.356C918.772,792.754,918.8,792.743,918.827,792.727Z" transform="translate(-854.56 -788.543)" fill="#2d2d2d"/>
      <path id="Path_11" data-name="Path 11" d="M922.763,792.32a12.286,12.286,0,0,1,1.827-.078,4.694,4.694,0,0,1,2.216.13,4.369,4.369,0,0,1,1.643-2.873,4.3,4.3,0,0,0-2.215-.854S920.332,792.62,922.763,792.32Z" transform="translate(-858.826 -788.594)" fill="#2d2d2d"/>
    </g>
  </g>
</svg>
