<svg xmlns="http://www.w3.org/2000/svg" width="24" height="24" viewBox="0 0 24 24">
  <g id="Group_1881" data-name="Group 1881" transform="translate(-573 -777)">
    <g id="Ellipse_537" data-name="Ellipse 537" transform="translate(573 777)" fill="none" stroke="#140f49" stroke-width="1">
      <circle cx="12" cy="12" r="12" stroke="none"/>
      <circle cx="12" cy="12" r="11.5" fill="none"/>
    </g>
    <g id="Polygon_4" data-name="Polygon 4" transform="translate(591 783) rotate(90)" fill="none">
      <path d="M5.168,1.248a1,1,0,0,1,1.664,0l4.131,6.2A1,1,0,0,1,10.131,9H1.869a1,1,0,0,1-.832-1.555Z" stroke="none"/>
      <path d="M 5.999878883361816 1.802953720092773 L 6.000000476837158 1.802771091461182 L 1.868520736694336 8.000000953674316 L 10.13147926330566 8.000000953674316 C 10.13147926330566 8.000000953674316 10.13147926330566 8.000000953674316 10.13148021697998 8.000000953674316 L 5.999878883361816 1.802953720092773 M 6.000000476837158 0.8027734756469727 C 6.317070484161377 0.8027734756469727 6.634140491485596 0.9512062072753906 6.832050323486328 1.248071670532227 L 10.96353054046631 7.445301055908203 C 11.40657043457031 8.109851837158203 10.93018054962158 9.000000953674316 10.13148021697998 9.000000953674316 L 1.868520736694336 9.000000953674316 C 1.069820404052734 9.000000953674316 0.5934305191040039 8.109851837158203 1.036470413208008 7.445301055908203 L 5.167950630187988 1.248071670532227 C 5.365860462188721 0.9512062072753906 5.682930469512939 0.8027734756469727 6.000000476837158 0.8027734756469727 Z" stroke="none" fill="#140f49"/>
    </g>
  </g>
</svg>
